<svg xmlns="http://www.w3.org/2000/svg" viewBox="0 0 100 100">
  <rect width="100" height="100" rx="22" fill="#E3000F"/>
  <circle cx="50" cy="44" r="26" fill="none" stroke="white" stroke-width="4"/>
  <circle cx="50" cy="44" r="6" fill="white"/>
  <path d="M50 18 C44 28 44 36 50 40 C56 36 56 28 50 18Z" fill="white"/>
  <path d="M50 70 C56 60 56 52 50 48 C44 52 44 60 50 70Z" fill="white"/>
  <path d="M24 44 C34 38 42 38 46 44 C42 50 34 50 24 44Z" fill="white"/>
  <path d="M76 44 C66 50 58 50 54 44 C58 38 66 38 76 44Z" fill="white"/>
  <circle cx="50" cy="44" r="6" fill="#E3000F"/>
  <text x="50" y="88" text-anchor="middle" font-family="Arial,sans-serif" font-size="10" font-weight="bold" fill="white" letter-spacing="0.5">zehnder</text>
</svg>
